<?xml version="1.0" encoding="utf-8"?>
<!-- Generator: Adobe Illustrator 26.0.3, SVG Export Plug-In . SVG Version: 6.00 Build 0)  -->
<svg version="1.1" id="Layer_1" xmlns="http://www.w3.org/2000/svg" xmlns:xlink="http://www.w3.org/1999/xlink" x="0px" y="0px"
	 viewBox="0 0 1920 1080" style="enable-background:new 0 0 1920 1080;" xml:space="preserve">
<style type="text/css">
	.st0{fill:#81D4FA;}
	.st1{fill:#B71C1C;}
	.st2{fill:#A1887F;}
	.st3{fill:url(#SVGID_1_);}
	.st4{fill:none;stroke:#000000;stroke-miterlimit:10;}
	.st5{stroke:#000000;stroke-miterlimit:10;}
	.st6{fill:#F9B438;}
</style>
<g id="sky">
	<g>
		<rect x="0.5" y="0.5" class="st0" width="1919" height="230"/>
		<path d="M1919,1v229H1V1H1919 M1920,0H0v231h1920V0L1920,0z"/>
	</g>
</g>
<g id="mantle">
	<g>
		<rect x="0.5" y="504.5" class="st1" width="1919" height="574.8"/>
		<path d="M1919,505.2v573.6H1V505.2H1919 M1920,504H0v576h1920V504L1920,504z"/>
	</g>
</g>
<g id="plate">
	<g>
		<path class="st2" d="M960,542.5c-251.2,0-937.6-22.3-959.5-23V400.4L960,275.5l959.5,124.9v119.1
			C1897.6,520.2,1211.2,542.5,960,542.5z"/>
		<path d="M960,276l959,124.9V519c-29.9,1-709.3,23-959,23S30.9,520,1,519V400.9L960,276 M960,275L0,400v120c0,0,703,23,960,23
			s960-23,960-23V400L960,275L960,275z"/>
	</g>
	<g>
		
			<linearGradient id="SVGID_1_" gradientUnits="userSpaceOnUse" x1="0.5" y1="-49.7" x2="1919.5" y2="-49.7" gradientTransform="matrix(1 0 0 1 0 312)">
			<stop  offset="0" style="stop-color:#4CAF50"/>
			<stop  offset="0.2948" style="stop-color:#4EB04E"/>
			<stop  offset="0.4008" style="stop-color:#55B349"/>
			<stop  offset="0.4762" style="stop-color:#60B83F"/>
			<stop  offset="0.5" style="stop-color:#66BB3A"/>
			<stop  offset="0.5237" style="stop-color:#60B83F"/>
			<stop  offset="0.5989" style="stop-color:#55B349"/>
			<stop  offset="0.7047" style="stop-color:#4EB04E"/>
			<stop  offset="0.9988" style="stop-color:#4CAF50"/>
		</linearGradient>
		<path class="st3" d="M339.6,407.1c-194.1,0-330.1-7.1-339.1-7.6v-248c63.5-4.4,120.6-5,168-5c24.3,0,49.3,0.2,75.8,0.4
			c30,0.2,61.1,0.4,95.3,0.4c135.2,0,332.8-3.4,662.5-29.8c271.8,22.9,403.2,26.1,504.6,26.1c26.3,0,51.3-0.2,75.5-0.5
			c23.9-0.2,48.6-0.4,74.3-0.4c59.6,0,137.5,1.1,263,8.8v248c-127.4-3.9-222-4.4-297.7-4.4c-28.7,0-56.9,0.1-84.2,0.2
			c-26.9,0.1-54.7,0.2-82.6,0.2c-143,0-283.8-2.4-505.9-13.9C763.1,398.5,558.1,407.1,339.6,407.1z"/>
		<path d="M1002,118c271.9,22.9,403.2,26.1,504.6,26.1c26.3,0,51.3-0.2,75.5-0.5c23.9-0.2,48.6-0.4,74.3-0.4
			c59.5,0,137.3,1.1,262.6,8.8v247c-127.1-3.9-221.6-4.4-297.2-4.4c-28.7,0-56.9,0.1-84.2,0.2c-26.9,0.1-54.7,0.2-82.6,0.2
			c-143,0-283.8-2.4-505.9-13.9H949h-0.1c-185.9,17-390.9,25.6-609.3,25.6c-191.3,0-326.1-6.9-338.6-7.6V151.9
			c63.3-4.4,120.2-5,167.5-5c24.3,0,49.3,0.2,75.8,0.4c30,0.2,61.1,0.4,95.3,0.4C474.8,147.8,672.3,144.4,1002,118 M1002,117
			c-322.3,25.8-517.5,29.8-662.5,29.8c-64.7,0-119.5-0.8-171.1-0.8c-56.9,0-110,1-168.5,5v249c0,0,137.3,7.6,339.6,7.6
			c171.2,0,388.9-5.5,609.4-25.6c232.6,12.1,376,13.9,505.9,13.9c56.1,0,109.7-0.3,166.8-0.3c84.9,0,177.7,0.8,298.2,4.5V151
			c-117.4-7.3-195.7-8.9-263.5-8.9c-51.7,0-97.4,0.9-149.8,0.9C1400.8,143.1,1267.4,139.4,1002,117L1002,117z"/>
	</g>
</g>
<g id="lines">
	<g>
		<line class="st4" x1="917" y1="399.8" x2="937.5" y2="449.5"/>
	</g>
	<g>
		<line class="st4" x1="951" y1="381" x2="917.9" y2="400.2"/>
	</g>
	<g>
		<line class="st4" x1="937.5" y1="449.9" x2="914.5" y2="490.5"/>
	</g>
	<g>
		<line class="st4" x1="915.4" y1="488.2" x2="953.5" y2="545.5"/>
	</g>
</g>
<g id="arrow">
	<polygon class="st5" points="1360,429.7 1359.2,448.3 1329.6,448.8 1329.6,465 1288.5,440.5 1329.6,413.5 1329.6,429.7 	"/>
	<polygon class="st5" points="1587.4,247.6 1586.7,263.8 1561,264.2 1561,278.3 1525.3,257 1561,233.6 1561,247.6 	"/>
	<polygon class="st5" points="556.6,445.5 557.3,426.8 587,426.3 587,410.2 628.1,434.7 587,461.7 587,445.5 	"/>
	<polygon class="st5" points="369,249.9 369.6,234.3 394.5,233.9 394.5,220.3 428.8,240.8 394.5,263.4 394.5,249.9 	"/>
</g>
<path class="st6" d="M1918.5,1033.3c-260.1-22-594.6-35.3-959.5-35.3s-699.5,13.3-959.5,35.3v95.7h1919V1033.3z"/>
</svg>
