<?xml version="1.0" encoding="utf-8"?>
<!-- Generator: Adobe Illustrator 26.0.3, SVG Export Plug-In . SVG Version: 6.00 Build 0)  -->
<svg version="1.1" id="Layer_1" xmlns="http://www.w3.org/2000/svg" xmlns:xlink="http://www.w3.org/1999/xlink" x="0px" y="0px"
	 viewBox="0 0 1920 1080" style="enable-background:new 0 0 1920 1080;" xml:space="preserve">
<style type="text/css">
	.st0{fill:#81D4FA;}
	.st1{fill:#B71C1C;}
	.st2{fill:#A1887F;}
	.st3{fill:url(#SVGID_1_);}
	.st4{fill:#CCCCCC;stroke:#000000;stroke-miterlimit:10;}
	.st5{fill:none;stroke:#000000;stroke-miterlimit:10;}
	.st6{stroke:#000000;stroke-miterlimit:10;}
	.st7{fill:#F9B438;}
</style>
<g id="sky">
	<g>
		<rect x="0.5" y="0.5" class="st0" width="1919" height="230"/>
		<path d="M1919,1v229H1V1H1919 M1920,0H0v231h1920V0L1920,0z"/>
	</g>
</g>
<g id="mantle">
	<g>
		<rect x="0.5" y="504.5" class="st1" width="1919" height="574.8"/>
		<path d="M1919,505.2v573.6H1V505.2H1919 M1920,504H0v576h1920V504L1920,504z"/>
	</g>
</g>
<g id="plate">
	<g>
		<path class="st2" d="M960,611.5c-165,0-218.2-30.1-265.1-56.7c-25.9-14.7-50.3-28.5-90.8-35.3c-41.7-7-115.5-10.6-219.4-10.6
			c-172.5,0-372.4,9.9-384.1,10.5v-119L960,275.5l959.5,124.9v119.1c-17.3,0-449.4,1-595.5,1c-71.1,0-98.6,17.3-130.5,37.3
			C1153.4,583,1107.9,611.5,960,611.5z"/>
		<path d="M960,276l959,124.9V519c-23.7,0-450.1,1-595,1c-32.5,0-58,3.6-80.3,11.3c-19.9,6.9-34.7,16.2-50.5,26.1
			c-40.1,25.1-85.5,53.6-233.2,53.6c-164.9,0-218-30.1-264.9-56.6c-25.9-14.7-50.4-28.6-91-35.4c-41.7-7-115.6-10.6-219.5-10.6
			C214.3,508.5,17.2,518.1,1,519V400.9L960,276 M960,275L0,400v120c0,0,205.7-10.5,384.6-10.5c89.5,0,172.3,2.6,219.4,10.5
			c113,19,99,92,356,92c263.9,0,202.4-91,364-91c150,0,596-1,596-1V400L960,275L960,275z"/>
	</g>
	<g>
		
			<linearGradient id="SVGID_1_" gradientUnits="userSpaceOnUse" x1="0.5" y1="-113.3" x2="1919.5" y2="-113.3" gradientTransform="matrix(1 0 0 1 0 312)">
			<stop  offset="0" style="stop-color:#4CAF50"/>
			<stop  offset="0.1877" style="stop-color:#4FB052"/>
			<stop  offset="0.3006" style="stop-color:#57B45B"/>
			<stop  offset="0.3936" style="stop-color:#65BA69"/>
			<stop  offset="0.4755" style="stop-color:#79C47C"/>
			<stop  offset="0.5" style="stop-color:#81C784"/>
			<stop  offset="0.5245" style="stop-color:#79C47C"/>
			<stop  offset="0.6061" style="stop-color:#65BA69"/>
			<stop  offset="0.6989" style="stop-color:#57B45B"/>
			<stop  offset="0.8115" style="stop-color:#4FB052"/>
			<stop  offset="0.9988" style="stop-color:#4CAF50"/>
		</linearGradient>
		<path class="st3" d="M104.4,400.7c-59.8,0-99.1-1-103.9-1.1V151.5c29.5-2,65.3-2.9,116.1-2.9c23.9,0,48.8,0.2,75.2,0.4
			c28.4,0.2,57.9,0.4,88.3,0.4c114.3,0,248.8-2.9,379.3-24.2c145-23.7,258.1-65.8,345.6-128.5c203.9,130.9,381.2,134.6,605.7,139.4
			c90.9,1.9,194,4.1,308.8,15.4v248c-49.3-1.5-102.5-2.2-172.4-2.2c-31.5,0-63.4,0.1-94.3,0.3c-30.4,0.1-61.8,0.3-92.2,0.3
			c-267,0-513.8-9.4-600.2-123.1l-0.3-0.4l-0.4,0.3c-68,49-204.6,84.5-406,105.4C389.5,397.1,218.7,400.7,104.4,400.7z"/>
		<path d="M1005-2.8c203.9,130.8,381.2,134.5,605.7,139.3c90.8,1.9,193.7,4.1,308.3,15.4V399c-49.2-1.5-102.3-2.2-171.9-2.2
			c-31.5,0-63.5,0.1-94.4,0.3c-30.4,0.1-61.8,0.3-92.2,0.3c-128.8,0-262.8-2.3-369.8-19.3c-56-8.9-101.3-21-138.5-37
			c-40.9-17.6-70.8-39.4-91.4-66.6l-0.6-0.8l-0.8,0.6c-68,49-204.5,84.4-405.7,105.3c-164.3,17.1-335,20.6-449.3,20.6
			c-58.1,0-96.8-1-103.4-1.1V151.9c29.4-2,65.1-2.9,115.6-2.9c23.9,0,48.8,0.2,75.2,0.4c28.4,0.2,57.9,0.4,88.3,0.4
			c114.4,0,248.9-2.9,379.4-24.2c67.8-11.1,129.8-26.6,184.3-46.1C904.9,57.7,959.2,30,1005-2.8 M1005-4
			C811,135.2,518.8,148.9,280.1,148.9c-58.4,0-113.7-0.8-163.5-0.8c-43.5,0-82.9,0.6-116.6,3v249c0,0,40.1,1.2,104.4,1.2
			C319,401.2,803,388.1,960,275c85.8,112.9,329,123.3,600.6,123.3c61.2,0,123.9-0.5,186.6-0.5c58,0,116.1,0.5,172.9,2.2V151
			C1526.3,112.2,1293,181,1005-4L1005-4z"/>
	</g>
	<path class="st4" d="M960,520"/>
	<path class="st4" d="M1588.5,497.5"/>
	<path class="st4" d="M960,520"/>
</g>
<g id="lines">
	<g>
		<line class="st5" x1="959" y1="274.9" x2="937.5" y2="306.5"/>
	</g>
	<g>
		<line class="st5" x1="940.9" y1="301.1" x2="966.5" y2="335.5"/>
	</g>
	<g>
		<line class="st5" x1="967.1" y1="333.6" x2="945.6" y2="365.2"/>
	</g>
	<g>
		<line class="st5" x1="949" y1="359.8" x2="974.6" y2="394.2"/>
	</g>
	<g>
		<line class="st5" x1="969.1" y1="392.6" x2="947.6" y2="424.2"/>
	</g>
	<g>
		<line class="st5" x1="947" y1="421.8" x2="972.5" y2="456.5"/>
	</g>
	<g>
		<line class="st5" x1="978.9" y1="456.4" x2="947.9" y2="478.8"/>
	</g>
	<g>
		<line class="st5" x1="948" y1="476.9" x2="971.5" y2="555.5"/>
	</g>
	<g>
		<line class="st5" x1="971.5" y1="553.9" x2="950" y2="585.6"/>
	</g>
	<g>
		<line class="st5" x1="949.4" y1="583.2" x2="986.5" y2="611.5"/>
	</g>
</g>
<g id="arrow">
	<polygon class="st6" points="1120,426.7 1119.2,445.3 1089.6,445.8 1089.6,462 1048.5,437.5 1089.6,410.5 1089.6,426.7 	"/>
	<polygon class="st6" points="1347.4,244.6 1346.7,260.8 1321,261.2 1321,275.3 1285.3,254 1321,230.6 1321,244.6 	"/>
	<polygon class="st6" points="803.6,445.5 804.3,426.8 834,426.3 834,410.2 875.1,434.7 834,461.7 834,445.5 	"/>
	<polygon class="st6" points="616,249.9 616.6,234.3 641.5,233.9 641.5,220.3 675.8,240.8 641.5,263.4 641.5,249.9 	"/>
</g>
<path class="st7" d="M1918.5,1033.3c-260.1-22-594.6-35.3-959.5-35.3s-699.5,13.3-959.5,35.3v95.7h1919V1033.3z"/>
</svg>
