<?xml version="1.0" encoding="utf-8"?>
<!-- Generator: Adobe Illustrator 26.0.3, SVG Export Plug-In . SVG Version: 6.00 Build 0)  -->
<svg version="1.1" id="Layer_1" xmlns="http://www.w3.org/2000/svg" xmlns:xlink="http://www.w3.org/1999/xlink" x="0px" y="0px"
	 viewBox="0 0 1920 1080" style="enable-background:new 0 0 1920 1080;" xml:space="preserve">
<style type="text/css">
	.st0{fill:#81D4FA;}
	.st1{fill:#B71C1C;}
	.st2{fill:#A1887F;}
	.st3{fill:url(#SVGID_1_);}
	.st4{fill:none;stroke:#000000;stroke-miterlimit:10;}
	.st5{stroke:#000000;stroke-miterlimit:10;}
	.st6{fill:#F9B438;}
</style>
<g id="sky">
	<g>
		<rect x="0.5" y="0.5" class="st0" width="1919" height="230"/>
		<path d="M1919,1v229H1V1H1919 M1920,0H0v231h1920V0L1920,0z"/>
	</g>
</g>
<g id="mantle">
	<g>
		<rect x="0.5" y="504.5" class="st1" width="1919" height="574.8"/>
		<path d="M1919,505.2v573.6H1V505.2H1919 M1920,504H0v576h1920V504L1920,504z"/>
	</g>
</g>
<g id="plate">
	<g>
		<path class="st2" d="M960,561.5c-222.3,0-293.7-13.2-401.8-33.3c-16.8-3.1-34.1-6.3-53.1-9.7c-40.7-7.2-103.9-10.9-187.9-10.9
			c-145.3,0-306.2,11.1-316.7,11.8v-119L960,275.5l959.5,124.9v119c-14.4-0.4-315.1-8-460.5-8c-65,0-118.5,9.3-180.5,20
			C1197.5,545.6,1105.7,561.5,960,561.5z"/>
		<path d="M960,276l959,124.9V519c-19.8-0.5-316-8-460-8c-65.1,0-118.6,9.3-180.5,20c-81,14-172.8,30-318.5,30
			c-222.3,0-293.7-13.2-401.7-33.3c-16.8-3.1-34.1-6.3-53.1-9.7c-40.7-7.2-103.9-10.9-187.9-10.9C174,507.1,15.6,517.9,1,518.9v-118
			L960,276 M960,275L0,400v120c0,0,166-11.9,317.2-11.9c72.7,0,142,2.7,187.8,10.9c141,25,198,43,455,43s349-50,499-50s461,8,461,8
			V400L960,275L960,275z"/>
	</g>
	<g>
		
			<linearGradient id="SVGID_1_" gradientUnits="userSpaceOnUse" x1="0.5" y1="-63" x2="1919.6001" y2="-63" gradientTransform="matrix(1 0 0 1 0 312)">
			<stop  offset="0" style="stop-color:#4CAF50"/>
			<stop  offset="0.2948" style="stop-color:#4EB052"/>
			<stop  offset="0.4008" style="stop-color:#55B359"/>
			<stop  offset="0.4762" style="stop-color:#60B864"/>
			<stop  offset="0.5" style="stop-color:#66BB6A"/>
			<stop  offset="0.5237" style="stop-color:#60B864"/>
			<stop  offset="0.5989" style="stop-color:#55B359"/>
			<stop  offset="0.7047" style="stop-color:#4EB052"/>
			<stop  offset="0.9988" style="stop-color:#4CAF50"/>
		</linearGradient>
		<path class="st3" d="M128.2,400.5c-73.6,0-122.3-0.9-127.7-1v-248c74.7-5.2,156.3-5.9,250.8-6.8c194.3-1.8,436-4,753.7-47.2
			c196.9,35,330.8,37.9,461.8,37.9c15.1,0,30.2,0,45.5-0.1c15.5,0,31.2-0.1,47.1-0.1c94.8,0,208.7,1.2,360.2,16.2v248
			c-99.8-3.1-196.8-4.6-290.6-6.1c-273.7-4.4-510.1-8.2-678.8-46.9h-0.1H950c-103.4,20.7-246.2,35.8-424.5,44.8
			C373.1,398.9,225.3,400.5,128.2,400.5z"/>
		<path d="M1005,98c196.9,35,330.8,37.9,461.8,37.9c15.1,0,30.5,0,45.5-0.1c15.3,0,31.2-0.1,47.1-0.1c94.7,0,208.4,1.2,359.6,16.1
			V399c-99.6-3-196.4-4.6-290.1-6.1c-273.7-4.4-510-8.2-678.7-46.8H950h-0.2c-103.4,20.7-246.2,35.8-424.5,44.8
			c-152.3,7.7-300,9.3-397.2,9.3C56.4,400,8.3,399.2,1,399V151.9c74.6-5.1,156-5.9,250.3-6.8C445.5,143.4,687.3,141.2,1005,98
			 M1005,97C534,161,230,135,0,151v249c0,0,49.6,1,128.2,1c199.5,0,585.8-6.7,821.8-54c227,52,580,41,970,53V151
			c-147.1-14.5-258.7-16.2-360.7-16.2c-31.5,0-62.1,0.2-92.6,0.2C1332,134.9,1200.2,131.7,1005,97L1005,97z"/>
	</g>
</g>
<g id="lines">
	<g>
		<line class="st4" x1="949.1" y1="346.6" x2="927.6" y2="378.2"/>
	</g>
	<g>
		<line class="st4" x1="926" y1="378.8" x2="951.6" y2="413.2"/>
	</g>
	<g>
		<line class="st4" x1="917" y1="435.8" x2="929.5" y2="457.5"/>
	</g>
	<g>
		<line class="st4" x1="951" y1="415" x2="917.9" y2="434.2"/>
	</g>
	<g>
		<line class="st4" x1="931.5" y1="459.9" x2="908.5" y2="500.5"/>
	</g>
	<g>
		<line class="st4" x1="908.4" y1="504.2" x2="946.5" y2="561.5"/>
	</g>
</g>
<g id="arrow">
	<polygon class="st5" points="1273,429.7 1272.2,448.3 1242.6,448.8 1242.6,465 1201.5,440.5 1242.6,413.5 1242.6,429.7 	"/>
	<polygon class="st5" points="1500.4,247.6 1499.7,263.8 1474,264.2 1474,278.3 1438.3,257 1474,233.6 1474,247.6 	"/>
	<polygon class="st5" points="638.6,445.5 639.3,426.8 669,426.3 669,410.2 710.1,434.7 669,461.7 669,445.5 	"/>
	<polygon class="st5" points="451,249.9 451.6,234.3 476.5,233.9 476.5,220.3 510.8,240.8 476.5,263.4 476.5,249.9 	"/>
</g>
<path class="st6" d="M1918.5,1033.3c-260.1-22-594.6-35.3-959.5-35.3s-699.5,13.3-959.5,35.3v95.7h1919V1033.3z"/>
</svg>
