<?xml version="1.0" encoding="utf-8"?>
<!-- Generator: Adobe Illustrator 25.0.0, SVG Export Plug-In . SVG Version: 6.00 Build 0)  -->
<svg version="1.1" id="Layer_1" xmlns="http://www.w3.org/2000/svg" xmlns:xlink="http://www.w3.org/1999/xlink" x="0px" y="0px"
	 viewBox="0 0 200 200" style="enable-background:new 0 0 200 200;" xml:space="preserve">
<style type="text/css">
	.st0{fill:#E65100;}
</style>
<g>
	<g>
		<path class="st0" d="M85,144c-4.12-0.54-0.09,6.97-3.86,5.54c-19.96-7.6-34.15-26.91-34.15-49.54c0-26.9,20.04-49.11,46.01-52.54
			V35.38C60.39,38.87,35,66.47,35,100c0,28.37,18.18,52.49,43.52,61.36c4.61,1.61-3.54,7.1,1.48,7.64l13-9.88L85,144z"/>
	</g>
	<g>
		<path class="st0" d="M120,31l-14,8l6,16c3.71,0.49,1.57-7.21,5-6c20.56,7.29,36.01,27.94,36.01,51c0,26.9-20.04,49.11-46.01,52.54
			v12.08c32.61-3.49,58-31.09,58-64.62c0-29.11-18.63-53.72-45-62C115.99,36.74,124.3,31.46,120,31z"/>
	</g>
</g>
<path d="M93,157.85"/>
<path d="M93,157.85"/>
</svg>
