<?xml version="1.0" encoding="utf-8"?>
<!-- Generator: Adobe Illustrator 26.0.3, SVG Export Plug-In . SVG Version: 6.00 Build 0)  -->
<svg version="1.1" id="Layer_1" xmlns="http://www.w3.org/2000/svg" xmlns:xlink="http://www.w3.org/1999/xlink" x="0px" y="0px"
	 viewBox="0 0 1920 1080" style="enable-background:new 0 0 1920 1080;" xml:space="preserve">
<style type="text/css">
	.st0{fill:#81D4FA;}
	.st1{fill:#B71C1C;}
	.st2{fill:#A1887F;}
	.st3{fill:#4CAF50;}
	.st4{fill:#F9B438;}
</style>
<g id="sky">
	<g>
		<rect x="0.5" y="0.5" class="st0" width="1919" height="230"/>
		<path d="M1919,1v229H1V1H1919 M1920,0H0v231h1920V0L1920,0z"/>
	</g>
</g>
<g id="mantle">
	<g>
		<rect x="0.5" y="504.5" class="st1" width="1919" height="532.9"/>
		<path d="M1919,505.1v531.8H1V505.1H1919 M1920,504H0v534h1920V504L1920,504z"/>
	</g>
</g>
<g id="plate">
	<g>
		<polygon class="st2" points="932.4,519.5 898.7,402.5 1918.5,402.5 1918.5,519.5 		"/>
		<path d="M1918,403v116H932.8l-33.4-116H1918 M1919,402H898l34,118h987V402L1919,402z"/>
	</g>
	<g>
		<polygon class="st3" points="969.4,151.5 1919.5,151.5 1919.5,399.5 898.7,401.5 		"/>
		<path d="M1919,152v247l-1019.7,2l70.4-249H1919 M1920,151H969l-71,251l1022-2V151L1920,151z"/>
	</g>
	<g>
		<polygon class="st3" points="0.5,399.5 0.5,151.5 968.3,151.5 897.6,399.5 		"/>
		<path d="M967.7,152l-70.4,247H1V152H967.7 M969,151H0v249h898L969,151L969,151z"/>
	</g>
	<g>
		<polygon class="st2" points="0.5,519.5 0.5,400.5 896.6,400.5 931.3,519.5 		"/>
		<path d="M896.2,401l34.4,118H1V401H896.2 M897,400H0v120h932L897,400L897,400z"/>
	</g>
</g>
<g id="arrow">
</g>
<path class="st4" d="M1919.5,1033.3c-260.1-22-594.6-35.3-959.5-35.3s-699.4,13.3-959.5,35.3v95.7h1919V1033.3z"/>
</svg>
