<?xml version="1.0" encoding="utf-8"?>
<!-- Generator: Adobe Illustrator 26.0.3, SVG Export Plug-In . SVG Version: 6.00 Build 0)  -->
<svg version="1.1" id="Layer_1" xmlns="http://www.w3.org/2000/svg" xmlns:xlink="http://www.w3.org/1999/xlink" x="0px" y="0px"
	 viewBox="0 0 1920 1080" style="enable-background:new 0 0 1920 1080;" xml:space="preserve">
<style type="text/css">
	.st0{fill:#81D4FA;}
	.st1{fill:#B71C1C;}
	.st2{fill:#A1887F;}
	.st3{fill:#795548;stroke:#000000;stroke-miterlimit:10;}
	.st4{fill:#43A047;}
	.st5{fill:#4CAF50;}
	.st6{fill:#A1887F;stroke:#000000;stroke-miterlimit:10;}
	.st7{fill:#8D6E63;stroke:#000000;stroke-miterlimit:10;}
	.st8{stroke:#000000;stroke-miterlimit:10;}
	.st9{fill:#F9B438;}
</style>
<g id="sky">
	<g>
		<rect x="0.5" y="0.5" class="st0" width="1919" height="332"/>
		<path d="M1919,1v331H1V1H1919 M1920,0H0v333h1920V0L1920,0z"/>
	</g>
</g>
<g id="mantle">
	<g>
		<rect x="0.5" y="504.5" class="st1" width="1919" height="574.8"/>
		<path d="M1919,505.2v573.6H1V505.2H1919 M1920,504H0v576h1920V504L1920,504z"/>
	</g>
</g>
<g id="plate">
	<g>
		<polygon class="st2" points="829.5,447.5 873.4,448.6 891.2,506.3 828.5,506.5 		"/>
		<path d="M830,448l43,1l17.5,56.7L829,506L830,448 M829,447l-1,60l63.8-0.2l-18.1-58.7L829,447L829,447z"/>
	</g>
	<polygon class="st3" points="983.5,449.5 883.5,450.5 950.5,206.5 1047.5,206.5 	"/>
	<g>
		<polygon class="st4" points="976.5,421.5 1047.4,170.5 1101.4,170.5 1037.6,421.5 		"/>
		<path d="M1100.7,171l-63.5,250h-60.1l70.6-250H1100.7 M1102,170h-55l-71.2,252h62.2L1102,170L1102,170z"/>
	</g>
	<g>
		<polygon class="st5" points="-66.5,402.5 -66.5,154.5 901.3,154.5 830.6,402.5 		"/>
		<path d="M900.7,155l-70.4,247H-66V155H900.7 M902,154H-67v249h898L902,154L902,154z"/>
	</g>
	<g>
		<polygon class="st2" points="996.5,482.3 977.9,423.3 1058.5,423.5 1059.5,482.5 		"/>
		<path d="M978.5,423.8l79.5,0.2l1,58l-62.1-0.2L978.5,423.8 M977.2,422.8l19,60l63.8,0.2l-1-60L977.2,422.8L977.2,422.8z"/>
	</g>
	<g>
		<polygon class="st2" points="898.7,506.2 851,447.2 984.2,447.5 1059.6,506.4 		"/>
		<path d="M852.1,447.7l132,0.3l74.1,57.9l-159.3-0.2L852.1,447.7 M850,446.7l48.4,60l162.7,0.2L984.4,447L850,446.7L850,446.7z"/>
	</g>
	<g>
		<polygon class="st2" points="831.5,423.5 875.4,424.6 893.2,482.3 830.5,482.5 		"/>
		<path d="M832,424l43,1l17.5,56.7L831,482L832,424 M831,423l-1,60l63.8-0.2l-18.1-58.7L831,423L831,423z"/>
	</g>
	<g>
		<polygon class="st2" points="1050.4,460.5 1031.7,401.5 2051.5,401.5 2051.5,460.5 		"/>
		<path d="M2051,402v58H1050.7l-18.4-58H2051 M2052,401H1031l19,60h1002V401L2052,401z"/>
	</g>
	<g>
		<polygon class="st5" points="1102.4,150.5 2052.5,150.5 2052.5,398.5 1031.7,400.5 		"/>
		<path d="M2052,151v247l-1019.7,2l70.4-249H2052 M2053,150h-951l-71,251l1022-2V150L2053,150z"/>
	</g>
	<g>
		<polygon class="st2" points="-66.5,462.5 -66.5,403.5 829.6,403.5 849.3,462.5 		"/>
		<path d="M829.3,404l19.3,58H-66v-58H829.3 M830,403H-67v60h917L830,403L830,403z"/>
	</g>
	<g>
		<polygon class="st2" points="-152.5,519.5 -152.5,460.5 927.6,460.5 947.3,519.5 		"/>
		<path d="M927.2,461l19.4,58H-152v-58H927.2 M928,460H-153v60H948L928,460L928,460z"/>
	</g>
	<g>
		<polygon class="st2" points="945.4,519.5 926.7,460.5 2048.5,460.5 2048.5,519.5 		"/>
		<path d="M2048,461v58H945.8l-18.4-58H2048 M2049,460H926l19,60h1104V460L2049,460z"/>
	</g>
	<polygon class="st6" points="837.5,425.5 830.2,401.8 902.5,153.5 910.5,182.5 	"/>
	<g>
		<polygon class="st4" points="911.4,180.5 947.3,178.5 875.6,423.5 837.7,425.5 		"/>
		<path d="M946.6,179.1l-71.4,244l-36.9,1.9l73.4-244L946.6,179.1 M948,178l-37,2l-74,246l39-2L948,178L948,178z"/>
	</g>
	<polygon class="st7" points="881.5,449.5 874.2,426.1 946.5,177.8 953.5,197.5 	"/>
</g>
<g id="arrow">
	<polygon class="st8" points="1399.5,278.7 1399.4,260 1429.1,258.3 1428.4,242.1 1470.5,264.8 1430.6,293.6 1429.9,277.4 	"/>
	<polygon class="st8" points="430.9,258.9 429.5,277.6 399.8,277 399.2,293.2 359,267.3 401,241.7 400.5,257.9 	"/>
	<polygon class="st8" points="1256.5,497.4 1256.4,478.7 1286.1,476.9 1285.4,460.8 1327.5,483.5 1287.6,512.2 1286.9,496.1 	"/>
	<polygon class="st8" points="563.1,478 561.7,496.7 532,496.1 531.5,512.3 491.3,486.4 533.3,460.8 532.7,477 	"/>
</g>
<path class="st9" d="M1918.5,1033.3c-260.1-22-594.6-35.3-959.5-35.3s-699.5,13.3-959.5,35.3v95.7h1919V1033.3z"/>
</svg>
