<?xml version="1.0" encoding="utf-8"?>
<!-- Generator: Adobe Illustrator 26.0.3, SVG Export Plug-In . SVG Version: 6.00 Build 0)  -->
<svg version="1.1" id="Layer_1" xmlns="http://www.w3.org/2000/svg" xmlns:xlink="http://www.w3.org/1999/xlink" x="0px" y="0px"
	 viewBox="0 0 1920 1080" style="enable-background:new 0 0 1920 1080;" xml:space="preserve">
<style type="text/css">
	.st0{fill:#81D4FA;}
	.st1{fill:#B71C1C;}
	.st2{fill:#A1887F;}
	.st3{fill:url(#SVGID_1_);}
	.st4{fill:#CCCCCC;stroke:#000000;stroke-miterlimit:10;}
	.st5{fill:none;stroke:#000000;stroke-miterlimit:10;}
	.st6{stroke:#000000;stroke-miterlimit:10;}
	.st7{fill:#F9B438;}
</style>
<g id="sky">
	<g>
		<rect x="0.5" y="0.5" class="st0" width="1919" height="230"/>
		<path d="M1919,1v229H1V1H1919 M1920,0H0v231h1920V0L1920,0z"/>
	</g>
</g>
<g id="mantle">
	<g>
		<rect x="0.5" y="504.5" class="st1" width="1919" height="574.8"/>
		<path d="M1919,505.2v573.6H1V505.2H1919 M1920,504H0v576h1920V504L1920,504z"/>
	</g>
</g>
<g id="plate">
	<g>
		<path class="st2" d="M951,583.5c-170.9,0-224.2-17.6-280.6-36.1c-29.1-9.6-59.1-19.5-106.3-27.8c-41.6-7.4-111.9-11.1-209-11.1
			c-160.9,0-343.4,10.4-354.6,11.1v-119L960,275.5l959.5,124.9v119.1c-16.4-0.2-406.6-4-552.5-4c-65.1,0-103.2,12.6-147.3,27.2
			C1162,561.8,1096.6,583.5,951,583.5z"/>
		<path d="M960,276l959,124.9V519c-22.6-0.2-407.4-4-552-4c-65.1,0-103.3,12.6-147.5,27.3c-57.7,19.1-123,40.7-268.5,40.7
			c-78,0-136.1-3.5-182.8-11c-41.6-6.7-68.8-15.6-97.6-25.1c-29.1-9.6-59.1-19.5-106.4-27.9c-41.6-7.4-112-11.1-209.1-11.1
			c-158.8,0-338.6,10.2-354.1,11v-118L960,276 M960,275L0,400v120c0,0,188-11.1,355.1-11.1c83.5,0,161.9,2.8,208.9,11.1
			c141,25,130,64,387,64s266-68,416-68s553,4,553,4V400L960,275L960,275z"/>
	</g>
	<g>
		
			<linearGradient id="SVGID_1_" gradientUnits="userSpaceOnUse" x1="0.5" y1="-79.4" x2="1919.5" y2="-79.4" gradientTransform="matrix(1 0 0 1 0 312)">
			<stop  offset="0" style="stop-color:#4CAF50"/>
			<stop  offset="0.2555" style="stop-color:#4EB052"/>
			<stop  offset="0.3475" style="stop-color:#55B358"/>
			<stop  offset="0.4131" style="stop-color:#60B864"/>
			<stop  offset="0.4657" style="stop-color:#71C075"/>
			<stop  offset="0.5" style="stop-color:#81C784"/>
			<stop  offset="0.5342" style="stop-color:#71C075"/>
			<stop  offset="0.5867" style="stop-color:#60B864"/>
			<stop  offset="0.6522" style="stop-color:#55B358"/>
			<stop  offset="0.744" style="stop-color:#4EB052"/>
			<stop  offset="0.9988" style="stop-color:#4CAF50"/>
		</linearGradient>
		<path class="st3" d="M191.2,402.5c-107.4,0-183.9-2.7-190.7-3v-248c34.4-2.4,74.4-3.4,129.7-3.4c29.2,0,59.6,0.3,91.8,0.6
			c34.8,0.3,70.8,0.7,108.1,0.7c203.8,0,443.2-10.3,673.9-86.7c149.2,68.7,276.4,82.8,421.4,82.8c39.6,0,79.7-1,122.1-2.1
			c45.5-1.2,92.6-2.4,142.6-2.4c83,0,155.9,3.4,229.4,10.6v248c-43.7-1.3-90.9-2-144.3-2c-57.2,0-114.3,0.7-169.5,1.5
			c-54.2,0.7-105.4,1.4-155.9,1.4c-223.6,0-392.7-14.1-491.5-82.7l-0.2-0.2l-0.3,0.1c-73.3,32.2-194.3,55.7-359.7,69.8
			C516.9,394.2,380.5,402.5,191.2,402.5z"/>
		<path d="M1003.9,63.1c70.9,32.6,141.2,54.7,214.9,67.5c60.6,10.5,124.3,15.2,206.5,15.2c39.6,0,79.7-1,122.1-2.1
			c45.5-1.2,92.6-2.4,142.6-2.4c82.8,0,155.6,3.4,228.9,10.6V399c-43.6-1.3-90.7-2-143.8-2c-57.2,0-114.3,0.7-169.5,1.5
			c-54.2,0.7-105.5,1.4-155.9,1.4c-84.5,0-193.4-1.7-286.1-14.7c-90.6-12.8-157.7-35-205.1-67.9L958,317l-0.5,0.2
			c-73.2,32.2-194.2,55.6-359.6,69.7C450.9,399.4,295.5,402,191,402c-105.1,0-180.7-2.6-190-3V151.9c34.2-2.4,74.2-3.4,129.2-3.4
			c29.2,0,59.6,0.3,91.8,0.6c34.8,0.3,70.8,0.7,108.1,0.7c87.9,0,204.4-1.7,326.5-14.6C784.9,121.6,898.6,98,1003.9,63.1 M1004,62
			c-231.5,76.8-470.6,86.8-673.9,86.8c-71.7,0-139-1.2-199.9-1.2c-47.6,0-91.3,0.8-130.2,3.5v249c0,0,77.9,3,191.2,3
			c228.6,0,601-12.1,766.8-85c102.3,71.1,281.9,82.8,491.8,82.8c103,0,213.4-2.8,325.4-2.8c48.1,0,96.5,0.5,144.8,2V151
			c-83.8-8.3-159.6-10.7-229.9-10.7c-96.3,0-182.3,4.5-264.7,4.5C1285.3,144.8,1155.6,131.9,1004,62L1004,62z"/>
	</g>
	<path class="st4" d="M960,520"/>
	<path class="st4" d="M1588.5,497.5"/>
	<path class="st4" d="M960,520"/>
</g>
<g id="lines">
	<g>
		<line class="st5" x1="958.1" y1="317.6" x2="936.6" y2="349.2"/>
	</g>
	<g>
		<line class="st5" x1="935" y1="349.8" x2="960.6" y2="384.2"/>
	</g>
	<g>
		<line class="st5" x1="961.1" y1="383.6" x2="939.6" y2="415.2"/>
	</g>
	<g>
		<line class="st5" x1="938" y1="414.8" x2="950.5" y2="436.5"/>
	</g>
	<g>
		<line class="st5" x1="951" y1="436" x2="917.9" y2="455.2"/>
	</g>
	<g>
		<line class="st5" x1="918.5" y1="454.5" x2="937.5" y2="528.5"/>
	</g>
	<g>
		<line class="st5" x1="936.5" y1="525.9" x2="915" y2="557.6"/>
	</g>
	<g>
		<line class="st5" x1="913.4" y1="555.2" x2="950.5" y2="583.5"/>
	</g>
</g>
<g id="arrow">
	<polygon class="st6" points="1191,429.7 1190.2,448.3 1160.6,448.8 1160.6,465 1119.5,440.5 1160.6,413.5 1160.6,429.7 	"/>
	<polygon class="st6" points="1418.4,247.6 1417.7,263.8 1392,264.2 1392,278.3 1356.3,257 1392,233.6 1392,247.6 	"/>
	<polygon class="st6" points="721.6,445.5 722.3,426.8 752,426.3 752,410.2 793.1,434.7 752,461.7 752,445.5 	"/>
	<polygon class="st6" points="534,249.9 534.6,234.3 559.5,233.9 559.5,220.3 593.8,240.8 559.5,263.4 559.5,249.9 	"/>
</g>
<path class="st7" d="M1918.5,1033.3c-260.1-22-594.6-35.3-959.5-35.3s-699.5,13.3-959.5,35.3v95.7h1919V1033.3z"/>
</svg>
