<?xml version="1.0" encoding="utf-8"?>
<!-- Generator: Adobe Illustrator 26.0.3, SVG Export Plug-In . SVG Version: 6.00 Build 0)  -->
<svg version="1.1" id="Layer_1" xmlns="http://www.w3.org/2000/svg" xmlns:xlink="http://www.w3.org/1999/xlink" x="0px" y="0px"
	 viewBox="0 0 1920 1080" style="enable-background:new 0 0 1920 1080;" xml:space="preserve">
<style type="text/css">
	.st0{fill:#81D4FA;}
	.st1{fill:#B71C1C;}
	.st2{fill:#A1887F;stroke:#000000;stroke-miterlimit:10;}
	.st3{fill:#4CAF50;}
	.st4{fill:#A1887F;}
	.st5{stroke:#000000;stroke-miterlimit:10;}
	.st6{fill:#F9B438;}
</style>
<g id="sky">
	<g>
		<rect x="0.5" y="0.5" class="st0" width="1919" height="332"/>
		<path d="M1919,1v331H1V1H1919 M1920,0H0v333h1920V0L1920,0z"/>
	</g>
</g>
<g id="mantle">
	<g>
		<rect x="0.5" y="504.5" class="st1" width="1919" height="574.8"/>
		<path d="M1919,505.2v573.6H1V505.2H1919 M1920,504H0v576h1920V504L1920,504z"/>
	</g>
</g>
<g id="plate">
	<polygon class="st2" points="955.5,424.5 855.5,425.5 922.5,181.5 1019.5,181.5 	"/>
	<g>
		<polygon class="st3" points="-15.5,400.5 -15.5,152.5 952.3,152.5 881.6,400.5 		"/>
		<path d="M951.7,153l-70.4,247H-15V153H951.7 M953,152H-16v249h898L953,152L953,152z"/>
	</g>
	<g>
		<polygon class="st4" points="864,482.3 835.8,423.3 958,423.5 959.5,482.5 		"/>
		<path d="M836.6,423.8l120.9,0.2l1.5,58l-94.7-0.2L836.6,423.8 M835,422.8l28.7,60L960,483l-1.5-60L835,422.8L835,422.8z"/>
	</g>
	<g>
		<polygon class="st4" points="945.4,458.5 926.7,399.5 1946.5,399.5 1946.5,458.5 		"/>
		<path d="M1946,400v58H945.7l-18.4-58H1946 M1947,399H926l19,60h1002V399L1947,399z"/>
	</g>
	<g>
		<polygon class="st3" points="997.4,148.5 1947.5,148.5 1947.5,396.5 926.7,398.5 		"/>
		<path d="M1947,149v247l-1019.7,2l70.4-249H1947 M1948,148H997l-71,251l1022-2V148L1948,148z"/>
	</g>
	<g>
		<polygon class="st4" points="-15.5,460.5 -15.5,401.5 880.6,401.5 900.3,460.5 		"/>
		<path d="M880.3,402l19.3,58H-15v-58H880.3 M881,401H-16v60h917L881,401L881,401z"/>
	</g>
	<g>
		<polygon class="st4" points="-152.5,519.5 -152.5,460.5 927.6,460.5 947.3,519.5 		"/>
		<path d="M927.2,461l19.4,58H-152v-58H927.2 M928,460H-153v60H948L928,460L928,460z"/>
	</g>
	<g>
		<polygon class="st4" points="945.4,519.5 926.7,460.5 2048.5,460.5 2048.5,519.5 		"/>
		<path d="M2048,461v58H945.8l-18.4-58H2048 M2049,460H926l19,60h1104V460L2049,460z"/>
	</g>
	<polygon class="st2" points="888.5,423.5 881.2,399.8 953.5,151.5 961.5,180.5 	"/>
</g>
<g id="arrow">
	<polygon class="st5" points="1203.5,278.7 1203.4,260 1233.1,258.3 1232.4,242.1 1274.5,264.8 1234.6,293.6 1233.9,277.4 	"/>
	<polygon class="st5" points="570.9,258.9 569.5,277.6 539.8,277 539.2,293.2 499,267.3 541,241.7 540.5,257.9 	"/>
	<polygon class="st5" points="1052.5,500.4 1052.4,481.7 1082.1,479.9 1081.4,463.8 1123.5,486.5 1083.6,515.2 1082.9,499.1 	"/>
	<polygon class="st5" points="703.1,478 701.7,496.7 672,496.1 671.5,512.3 631.3,486.4 673.3,460.8 672.7,477 	"/>
</g>
<path class="st6" d="M1918.5,1033.3c-260.1-22-594.6-35.3-959.5-35.3s-699.5,13.3-959.5,35.3v95.7h1919V1033.3z"/>
</svg>
